<svg width="415" height="341" viewBox="0 0 415 341" fill="none" xmlns="http://www.w3.org/2000/svg">
<path d="M83 186L131.5 224.5L149.5 213.5L251 116L261 81L254.5 55.5L238 27.5L211.5 10.5H180L160 19.5L141.5 32L131.5 41.5L114 19.5L95 10.5H61L36 19.5L11 51.5L7 85.5L11 108L41 148L83 186Z" fill="#BA34BD" stroke="black"/>
<path d="M234.989 15.6368C222.88 5.6246 207.346 0.111397 191.246 0.111397C172.624 0.111397 154.61 7.52755 141.824 20.4632C138.841 23.4676 136.115 26.7785 133.585 30.4488C120.518 11.4686 99.411 0 76.667 0C72.4991 0 68.2729 0.384064 64.1027 1.14085C42.5776 5.06664 25.6589 16.9234 13.8206 36.3724C-3.13049 64.2518 -4.4717 89.9982 9.70379 115.082C17.3085 128.518 27.2029 141.662 39.9688 155.259C63.4553 180.263 91.2521 203.983 127.474 229.934C129.403 231.308 131.457 232 133.567 232C136.841 232 139.056 230.341 140.318 229.385C172.51 206.385 198.929 184.225 221.09 161.612C233.556 148.891 247.675 133.262 257.999 113.826C262.329 105.641 267.275 94.6547 266.988 82.2435C266.338 55.0791 255.578 32.6669 234.994 15.6328L234.989 15.6368ZM244.777 106.813C235.359 124.556 222.119 139.178 210.414 151.13C189.312 172.658 164.152 193.829 133.516 215.847C99.4153 191.24 73.0864 168.677 50.857 145.003C38.9162 132.281 29.7193 120.082 22.7153 107.698C11.2997 87.4919 12.5263 67.3014 26.5941 44.1724C36.1165 28.524 49.6437 19.0078 66.7704 15.8804C70.0503 15.2807 73.3812 14.9836 76.6648 14.9836C97.0732 14.9836 115.145 26.2541 124.95 45.0502C125.51 46.1438 126.061 47.1882 126.968 48.8795C128.266 51.3296 130.805 52.8488 133.56 52.8488H133.689C136.489 52.8015 139.032 51.1895 140.269 48.6695C143.843 41.4083 147.709 35.7987 152.448 31.0009C162.452 20.8826 176.589 15.0914 191.245 15.0914C203.883 15.0914 216.033 19.3861 225.455 27.1887C242.557 41.3216 251.492 59.9739 252.034 82.6016C252.236 91.4916 248.474 99.8256 244.777 106.813L244.777 106.813Z" fill="black"/>
<path d="M79 105.5L106 115L124.5 144L145.5 181L171.5 208L186 216.5H191L187.5 233.5L182 243.5L173.5 254L165.5 259L168 260.5H187.5H210.5L225.5 254L236 243.5H243L258 251.5L285.5 256H291V265.5L294 271.5L285.5 277.5L251.5 284.5L225.5 281.5L210.5 279.5C201.5 277 183.2 271.9 182 271.5C180.8 271.1 166.5 268.667 159.5 267.5H135L110 270L98.5 275.5L90 282.5L82.5 291.5L81.5 295L92.5 291.5L102.5 289.5H110L126.5 291.5L142.5 297L163 305L199 318.5L231.5 329L266.5 332.5L322.5 329L355.5 318.5L374 311L395 291.5L407.5 265.5L410 236L395 200.5L366.5 173L297 150L218.5 130L191 115L187.5 105.5L192.5 101.5V95L191 85L186 82.5L179.5 78.5L163 80L157.5 87.5L149.5 95L137 96.5H119.5L100.5 87.5L94 78.5L88.5 60.5L82 54.5L68.5 58.5L60 68.5L56.5 80L60 90.5L79 105.5Z" fill="#10B6AC"/>
<path d="M161.5 112L126.5 117.5L106 115M106 115L79 105.5L60 90.5L56.5 80L60 68.5L68.5 58.5L82 54.5L88.5 60.5L94 78.5L100.5 87.5L119.5 96.5H137L149.5 95L157.5 87.5L163 80L179.5 78.5L186 82.5L191 85L192.5 95V101.5L187.5 105.5L191 115L218.5 130L297 150L366.5 173L395 200.5L410 236L407.5 265.5L395 291.5L374 311L355.5 318.5L322.5 329L266.5 332.5L231.5 329L199 318.5L163 305L142.5 297L126.5 291.5L110 289.5H102.5L92.5 291.5L81.5 295L82.5 291.5L90 282.5L98.5 275.5L110 270L135 267.5H159.5C166.5 268.667 180.8 271.1 182 271.5C183.2 271.9 201.5 277 210.5 279.5L225.5 281.5L251.5 284.5L285.5 277.5L294 271.5L291 265.5V256H285.5L258 251.5L243 243.5H236L225.5 254L210.5 260.5H187.5H168L165.5 259L173.5 254L182 243.5L187.5 233.5L191 216.5H186L171.5 208L145.5 181L124.5 144L106 115Z" stroke="black"/>
<path fill-rule="evenodd" clip-rule="evenodd" d="M280.325 135.567L282.549 137.594C283.223 138.536 283.559 139.754 283.559 141.241C287.339 141.781 291.584 142.318 296.306 142.855C306.556 144.342 315.193 145.829 322.204 147.321C329.08 149.079 335.761 151.239 342.231 153.806C343.45 152.319 344.861 151.375 346.484 150.965C347.698 150.696 348.709 150.767 349.519 151.171L351.336 154.004C351.607 155.089 351.607 156.369 351.336 157.856C357.405 160.556 363.208 163.668 368.741 167.173C380.61 174.874 390.319 183.857 397.87 194.12C400.435 192.908 402.725 192.501 404.748 192.908C405.962 193.176 406.84 193.713 407.379 194.522L407.783 195.336C407.915 196.142 407.85 196.956 407.579 197.767C407.176 199.658 405.962 201.478 403.938 203.237C411.093 215.798 414.528 229.576 414.26 244.575L411.827 265.849C411.559 266.654 411.288 267.607 411.017 268.681C412.635 269.628 413.786 270.914 414.461 272.525C415 273.611 415.135 274.626 414.864 275.564C414.596 276.511 413.922 277.322 412.841 278.004C411.494 278.809 409.806 279.081 407.782 278.809C406.84 281.24 405.894 283.471 404.949 285.495C399.687 296.567 390.652 306.025 377.84 313.861C374.331 315.888 370.625 317.841 366.713 319.732C366.846 319.865 366.917 320.071 366.917 320.34C367.185 321.012 367.32 321.959 367.32 323.172C367.32 324.659 366.852 325.88 365.903 326.819C365.361 327.367 364.822 327.766 364.286 328.04L363.476 328.238C362.395 328.105 361.384 327.771 360.442 327.226C358.418 326.149 357.001 325.066 356.194 323.989L356.603 323.783C352.823 325.137 348.914 326.355 344.869 327.429C327.197 332.43 306.832 335.401 283.768 336.339C282.549 336.48 281.27 336.545 279.924 336.545L279.72 337.153C279.449 337.958 278.843 338.838 277.9 339.787L275.066 341C273.985 340.867 272.974 340.46 272.032 339.787L270.008 337.761L269.401 336.749C256.047 336.616 243.571 335.321 231.97 332.896C222.263 330.736 212.345 327.83 202.228 324.184L201.621 324.792C200.95 325.606 200.072 326.146 198.996 326.411L196.162 326.007C195.352 325.603 194.545 324.995 193.735 324.178L192.315 322.151L192.112 321.552V320.54C191.844 320.407 191.505 320.272 191.102 320.127C190.021 319.723 179.435 315.203 159.336 306.55C152.181 303.314 145.578 300.606 139.507 298.446C139.104 298.851 138.762 299.128 138.497 299.26C137.822 299.933 136.947 300.272 135.866 300.272L133.038 299.86C132.095 299.32 131.35 298.647 130.808 297.833C130.404 297.293 130.004 296.487 129.594 295.402V295.204C124.2 293.584 119.21 292.496 114.623 291.959C112.599 291.69 109.836 291.555 106.328 291.555C105.518 291.422 104.304 291.348 102.689 291.348L99.655 291.753C95.8755 292.165 93.9222 292.36 93.7867 292.36L85.4914 294.387L81.4438 296.216H81.2377L79.2139 297.022L81.2377 291.552L84.272 285.879C85.0821 284.259 86.9027 281.961 89.7394 278.993L96.4121 273.319L99.0427 271.7C107.403 266.295 117.929 263.327 130.605 262.79C142.878 261.976 158.462 263.536 177.343 267.443L191.303 270.688C198.992 272.715 203.852 273.933 205.873 274.335C218.417 277.167 229.343 278.727 238.649 278.996C251.599 279.4 263.872 278.049 275.473 274.942C280.87 273.455 285.928 271.491 290.647 269.063C289.843 267.443 289.033 265.351 288.22 262.785C287.816 260.212 287.475 258.053 287.209 256.291C286.806 257.238 284.441 257.852 280.128 258.12C274.463 258.12 269.201 257.58 264.346 256.501C254.363 254.208 245.87 250.423 238.852 245.148C237.771 247.175 236.563 249.137 235.214 251.028C233.19 253.993 231.096 256.362 228.937 258.12L224.889 260.952L221.05 262.781C214.572 264.672 205.876 265.481 194.95 265.212C192.516 265.079 186.925 264.398 178.158 263.185C173.574 262.513 169.188 261.766 165.008 260.952C160.827 260.548 160.827 259.194 165.008 256.899C165.14 256.766 165.344 256.63 165.614 256.495L174.114 249.609C177.622 246.768 179.982 244.41 181.196 242.516L182.409 240.077C182.542 239.673 182.748 238.598 183.016 236.84L183.826 233.194L184.43 223.671C184.84 220.697 185.105 218.803 185.24 217.997V217.791L184.027 217.387C182.138 216.714 179.036 215.295 174.72 213.135C164.195 207.058 154.355 197.806 145.182 185.368C140.327 179.022 134.391 169.974 127.376 158.22C116.992 140.931 109.504 129.246 104.92 123.166C103.435 121.139 102.487 119.381 102.086 117.903C101.411 117.634 100.669 117.428 99.8616 117.295C99.187 117.162 98.5802 117.026 98.041 116.891C97.2309 118.917 95.9495 120.263 94.1966 120.944L91.1623 121.348C90.2196 121.08 89.3418 120.534 88.5373 119.729C86.9199 118.242 86.3808 116.15 86.9199 113.442C84.4925 112.501 82.1977 111.489 80.0412 110.403C75.9936 108.653 72.358 106.825 69.115 104.933C67.5004 106.553 65.8125 107.568 64.0569 107.972H61.0226C60.2181 107.432 59.6762 106.553 59.408 105.338C58.8661 103.311 59.2753 100.88 60.6217 98.0477C59.9471 97.3749 59.2753 96.6937 58.5979 96.0209L56.1704 93.18L53.9406 89.7342C52.1877 86.9018 51.245 84.1288 51.1123 81.4318C50.5704 75.7586 51.9901 70.02 55.3603 64.2084C58.5979 58.3966 62.9107 54.0035 68.3106 51.0387L70.5348 49.8176L73.1598 49.0119L78.424 48C82.0624 48.4042 84.0862 48.6728 84.4926 48.8056C85.7064 49.0742 86.7818 49.5519 87.7302 50.2246L90.5641 52.2514C92.7206 54.5439 94.5383 58.0632 96.0259 62.787L98.0497 71.9064C98.8598 75.42 99.7376 77.9188 100.68 79.4113L101.284 80.624L102.094 81.4381L105.736 83.8691C110.997 86.7015 116.933 88.8611 123.535 90.3536C130.817 91.9733 137.363 92.3153 143.164 91.3655C144.377 91.2327 146.604 90.7578 149.836 89.9466V89.3388C149.568 85.8251 150.246 82.8543 151.86 80.4293C153.478 77.8569 155.501 75.9037 157.929 74.5497C161.034 72.7914 165.078 71.7766 170.069 71.5109C177.08 71.5109 183.151 73.0712 188.278 76.1722C193.539 79.2845 196.779 83.0581 197.99 87.5248C198.8 90.7614 198.393 94.2044 196.776 97.8534C196.643 98.1219 195.966 99.0745 194.752 100.694L193.135 102.515C192.46 103.32 191.585 103.869 190.504 104.134L189.494 104.742L198.193 112.238C201.973 115.342 205.54 117.977 208.916 120.136C210.398 118.924 211.68 118.109 212.755 117.705C214.107 117.301 215.188 117.23 215.995 117.499L216.8 118.107C217.342 118.788 217.678 119.526 217.81 120.34C218.081 121.827 218.016 123.378 217.607 125.001C217.878 125.134 218.214 125.27 218.618 125.405C219.831 125.945 223.879 127.63 230.758 130.471C233.724 131.276 238.04 132.563 243.708 134.315C250.316 136.073 259.085 137.696 270.009 139.183C270.819 139.316 271.764 139.451 272.843 139.587C273.924 137.56 275.335 136.28 277.091 135.734C278.302 135.361 279.377 135.302 280.326 135.567L280.325 135.567ZM241.277 145.492C239.388 145.088 234.663 143.734 227.112 141.439L220.234 138.606C217.4 137.521 215.108 136.447 213.355 135.361C210.521 134.284 207.083 132.257 203.036 129.284C198.582 126.047 194.74 122.598 191.5 118.955L187.048 113.282C186.106 111.928 185.16 110.107 184.214 107.812C182.868 104.431 182.6 102.478 183.404 101.932C184.214 101.26 186.103 102.065 189.069 104.363C188.937 103.959 188.937 103.558 189.069 103.151C190.416 98.9644 191.161 96.5984 191.293 96.0585C192.104 91.058 189.679 87.3465 184.011 84.9158C180.099 83.1576 175.583 82.3519 170.454 82.4848C167.346 82.7533 164.987 83.4261 163.372 84.5116C161.887 85.5886 161.142 86.9426 161.142 88.5651C161.275 88.698 161.074 89.3708 160.538 90.5919V90.7898C160.538 91.4711 160.405 92.2088 160.129 93.0229C159.457 94.7811 158.178 96.4037 156.29 97.882C152.782 100.723 149.075 102.275 145.164 102.543C138.55 103.764 130.593 103.49 121.29 101.738C112.659 99.7109 105.642 97.0057 100.248 93.6336C98.091 92.2796 96.5358 91.1941 95.5987 90.3885C95.3277 90.2556 94.4527 89.4472 92.968 87.9575L90.9442 85.323C89.5978 83.0304 88.3135 79.4518 87.0998 74.5841C86.157 69.5921 85.5502 66.6862 85.2792 65.8721C84.7401 63.4411 83.9328 61.5528 82.8518 60.2073C81.909 59.3932 80.6953 58.9862 79.2106 58.9862L76.1763 59.3904L73.348 60.4023C69.7068 62.4291 66.6725 65.335 64.2419 69.1143C61.9471 73.0322 60.866 76.7437 61.0015 80.257C61.0015 81.4781 61.4108 83.03 62.2209 84.9183L65.4585 89.3761C69.5061 93.9668 75.4417 98.3594 83.258 102.546C89.8713 105.658 95.9402 108.015 101.467 109.638C109.559 112.338 119.207 113.692 130.398 113.692C137.144 113.559 143.349 113.152 149.014 112.47C152.254 112.066 155.689 111.529 159.336 110.856C162.164 110.042 163.787 109.709 164.188 109.844C164.055 110.249 162.638 111.125 159.94 112.47C153.061 115.444 145.101 117.536 136.069 118.757C136.069 120.111 135.798 121.321 135.259 122.404C134.449 123.616 133.571 124.357 132.628 124.628C131.818 124.902 131.079 124.967 130.404 124.835L129.594 124.628L127.167 122.808C125.953 121.587 125.143 120.648 124.733 119.975C121.905 120.108 119.339 120.108 117.05 119.975H116.641C122.038 127.814 128.71 138.677 136.67 152.593C144.088 165.565 149.485 174.684 152.855 179.948C160.682 191.837 168.972 201.295 177.742 208.314L186.037 214.193C186.305 212.574 186.511 211.559 186.644 211.155C187.448 209.264 188.668 207.03 190.282 204.469C193.249 200.15 197.161 196.43 202.016 193.327C208.084 189.273 214.288 187.786 220.631 188.869H220.834C221.105 188.869 221.441 188.934 221.845 189.067C222.254 189.067 222.655 189.14 223.064 189.273C228.591 190.627 233.047 193.253 236.417 197.171C239.384 200.552 241.608 204.667 243.09 209.535C244.846 216.825 244.846 224.526 243.09 232.63C242.957 233.311 242.822 233.984 242.686 234.656C243.09 234.656 243.497 234.789 243.9 235.061C249.432 239.388 257.121 243.442 266.967 247.219C276.14 250.599 280.795 252.358 280.927 252.491C284.839 254.11 286.928 255.396 287.199 256.335C287.066 255.394 286.996 254.585 286.996 253.904C286.725 249.045 287.064 244.587 288.006 240.536C289.488 233.91 292.319 228.172 296.505 223.312C302.038 216.418 309.391 212.034 318.559 210.143C319.64 210.01 320.715 210.143 321.796 210.547C323.281 211.353 324.091 212.84 324.229 215.005C324.633 218.79 323.484 220.949 320.786 221.489C309.323 223.782 301.496 231.013 297.316 243.171C296.102 246.551 295.225 250.198 294.685 254.116C294.417 256.275 294.146 258.975 293.881 262.22V267.285C300.085 263.772 305.612 259.314 310.472 253.909C311.415 253.104 313.843 250.735 317.755 246.817C321.534 243.852 324.233 242.899 325.847 243.985C327.735 245.197 327.464 248.103 325.037 252.697C323.148 256.482 320.989 259.52 318.562 261.816L316.538 264.041L309.659 270.118C307.37 271.738 305.682 272.959 304.601 273.765L299.746 277.21C294.485 280.051 290.982 281.736 289.226 282.276L283.764 284.105C281.469 284.778 279.787 285.318 278.706 285.719C265.624 289.1 252.134 290.451 238.241 289.773C228.125 289.233 216.589 287.48 203.639 284.509L175.52 277.013C157.175 272.547 142.337 270.387 131.007 270.52C119.807 270.661 110.099 272.688 101.872 276.597L99.4388 277.818L93.167 282.276L87.2987 287.949L82.2406 294.635L84.8713 293.216L93.1666 290.375C93.7085 290.242 95.6646 289.835 99.0348 289.162L102.069 288.554C102.879 288.422 104.161 288.348 105.914 288.348H114.413C126.962 289.029 142.472 293.349 160.946 301.32C167.285 303.613 177.876 307.666 192.715 313.478C206.743 318.609 220.097 322.461 232.771 325.028C248.281 327.994 264.94 328.873 282.748 327.663C304.326 326.442 323.952 323.403 341.624 318.543C353.355 315.163 363.471 310.843 371.973 305.571C382.899 299.225 390.786 291.254 395.647 281.663C400.908 269.782 403.607 257.624 403.739 245.192C403.871 231.008 400.501 218.313 393.623 207.108C386.611 195.49 376.424 185.418 363.071 176.912C350.394 168.672 335.959 162.53 319.772 158.479C313.164 156.859 304.933 155.366 295.088 154.012C283.487 152.534 274.653 151.313 268.584 150.374C258.876 149.009 249.771 147.384 241.275 145.493L241.277 145.492ZM207.691 203.044C204.32 205.071 201.487 207.635 199.192 210.736C197.978 212.494 197.168 213.916 196.764 214.996C196.493 215.4 196.019 217.023 195.344 219.855L192.917 234.647L191.497 239.308C190.557 242.554 189.137 245.12 187.249 247.009C184.822 249.841 181.516 252.343 177.336 254.505C174.508 255.859 171.4 257.007 168.03 257.951C170.864 257.682 174.302 257.617 178.349 257.753L194.943 257.547C204.385 257.278 211.871 255.995 217.4 253.702C220.908 252.481 224.008 249.714 226.706 245.392C229.405 241.338 231.296 236.409 232.371 230.6C233.717 224.115 233.65 218.111 232.168 212.571C230.011 205.677 226.167 201.694 220.632 200.611L219.621 200.207H219.218C215.85 199.664 212.006 200.606 207.69 203.045L207.691 203.044Z" fill="black"/>
</svg>
